HIERARCHY
ROOT joint_0
{
	OFFSET 0.000000 0.000000 0.000000
	CHANNELS 6 Xposition Yposition Zposition Zrotation Yrotation Xrotation 
	JOINT joint_1
	{
		OFFSET 10.084412 4.114712 95.061035
		CHANNELS 3 Zrotation Yrotation Xrotation
		JOINT joint_2
		{
			OFFSET -1.615463 4.243484 87.329956
			CHANNELS 3 Zrotation Yrotation Xrotation
			JOINT joint_3
			{
				OFFSET -3.579636 4.638191 87.154053
				CHANNELS 3 Zrotation Yrotation Xrotation
				JOINT joint_4
				{
					OFFSET 5.443451 7.217075 123.562988
					CHANNELS 3 Zrotation Yrotation Xrotation
					JOINT joint_5
					{
						OFFSET 21.688065 15.141808 90.458008
						CHANNELS 3 Zrotation Yrotation Xrotation
						End Site
						{
							OFFSET 0.000000 0.000000 0.000000
						}
					}
				}
				JOINT joint_6
				{
					OFFSET 3.611374 -22.863556 70.791992
					CHANNELS 3 Zrotation Yrotation Xrotation
					JOINT joint_7
					{
						OFFSET 3.493607 -153.029137 -12.665039
						CHANNELS 3 Zrotation Yrotation Xrotation
						JOINT joint_8
						{
							OFFSET -14.929443 -32.628616 -254.032959
							CHANNELS 3 Zrotation Yrotation Xrotation
							JOINT joint_9
							{
								OFFSET 11.589401 -3.548126 -242.255005
								CHANNELS 3 Zrotation Yrotation Xrotation
								End Site
								{
									OFFSET 0.000000 0.000000 0.000000
								}
							}
						}
					}
				}
				JOINT joint_10
				{
					OFFSET 2.651962 30.943008 67.690918
					CHANNELS 3 Zrotation Yrotation Xrotation
					JOINT joint_11
					{
						OFFSET -6.172562 150.392159 -30.576904
						CHANNELS 3 Zrotation Yrotation Xrotation
						JOINT joint_12
						{
							OFFSET 15.363358 20.741959 -255.254028
							CHANNELS 3 Zrotation Yrotation Xrotation
							JOINT joint_13
							{
								OFFSET 23.282578 -11.086121 -241.182983
								CHANNELS 3 Zrotation Yrotation Xrotation
								End Site
								{
									OFFSET 0.000000 0.000000 0.000000
								}
							}
						}
					}
				}
			}
		}
	}
	JOINT joint_14
	{
		OFFSET -7.080551 -92.910816 -106.291992
		CHANNELS 3 Zrotation Yrotation Xrotation
		JOINT joint_15
		{
			OFFSET -38.248322 -6.001282 -411.906006
			CHANNELS 3 Zrotation Yrotation Xrotation
			JOINT joint_16
			{
				OFFSET -11.189407 -11.244659 -448.150986
				CHANNELS 3 Zrotation Yrotation Xrotation
				JOINT joint_17
				{
					OFFSET 169.870491 -24.631378 -80.352999
					CHANNELS 3 Zrotation Yrotation Xrotation
					End Site
					{
						OFFSET 0.000000 0.000000 0.000000
					}
				}
			}
		}
	}
	JOINT joint_18
	{
		OFFSET -2.796600 85.817772 -112.273987
		CHANNELS 3 Zrotation Yrotation Xrotation
		JOINT joint_19
		{
			OFFSET -44.395859 -8.174402 -411.255005
			CHANNELS 3 Zrotation Yrotation Xrotation
			JOINT joint_20
			{
				OFFSET -25.617508 -5.555587 -447.666992
				CHANNELS 3 Zrotation Yrotation Xrotation
				JOINT joint_21
				{
					OFFSET 163.870811 53.215703 -78.867000
					CHANNELS 3 Zrotation Yrotation Xrotation
					End Site
					{
						OFFSET 0.000000 0.000000 0.000000
					}
				}
			}
		}
	}
}
MOTION
Frames: 6
Frame Time: 0.016667
560.185364 -88.772270 1064.817017 3.186255 0.996398 1.398066 0.036713 -4.983546 2.569121 -0.312684 0.823622 -0.556080 -0.182464 -0.888090 0.378850 -2.240531 7.323715 3.965901 0.000000 0.000000 0.000000 -5.451651 0.370769 0.394410 0.260016 -0.146616 -1.431673 -0.135551 3.131555 -1.879253 0.000000 0.000000 0.000000 2.210356 2.372169 -1.235945 0.323552 1.957767 -1.759947 0.060815 -2.293973 -0.316748 0.000000 0.000000 0.000000 0.601220 -2.253455 -0.629660 0.365121 3.101590 1.067921 0.537637 -2.127241 -0.054724 0.000000 0.000000 0.000000 -5.226237 -3.514400 1.352101 -5.108881 -0.488181 -0.520033 -5.001772 1.443048 -2.875500 0.000000 0.000000 0.000000 
562.794556 -88.556618 1064.779053 2.955061 1.343763 1.365973 0.001708 -4.674886 2.566734 -0.334557 0.793202 -0.598385 -0.206575 -0.829559 0.404246 -2.113807 6.546394 4.022011 0.000000 0.000000 0.000000 -5.553052 0.508638 0.104521 0.101767 0.009501 -1.193405 -0.147782 2.495986 -2.389514 0.000000 0.000000 0.000000 2.114429 2.891414 -1.042313 0.511472 2.519426 -1.968780 0.103471 -3.745286 -0.388093 0.000000 0.000000 0.000000 0.723282 -2.298437 -0.675784 0.479333 2.736637 1.147594 0.638315 -2.032971 0.006448 0.000000 0.000000 0.000000 -5.164236 -3.620109 1.413845 -5.039914 -0.643739 -0.528457 -4.937427 1.412567 -2.835061 0.000000 0.000000 0.000000 
566.728882 -88.329872 1064.805054 2.602356 1.807745 1.324307 -0.027069 -4.112489 2.460174 -0.335146 0.753080 -0.629164 -0.211332 -0.758315 0.429193 -1.915985 5.251735 4.149496 0.000000 0.000000 0.000000 -5.773912 0.766733 -0.154279 -0.151441 0.282870 -0.949538 -0.170641 1.517235 -3.328988 0.000000 0.000000 0.000000 1.817836 3.735666 -0.911793 0.793032 3.465156 -2.176861 0.172918 -5.963975 -0.357563 0.000000 0.000000 0.000000 0.914543 -2.227054 -0.739255 0.666779 2.046540 1.233274 0.798562 -1.804323 0.115216 0.000000 0.000000 0.000000 -5.080176 -3.677119 1.502121 -4.941723 -0.942519 -0.539322 -4.847267 1.370462 -2.778511 0.000000 0.000000 0.000000 
572.038208 -88.348259 1065.373047 2.215610 2.431403 1.305376 -0.005687 -3.694841 2.315696 -0.289135 0.735919 -0.610562 -0.169585 -0.728255 0.417887 -1.730946 4.081204 4.216395 0.000000 0.000000 0.000000 -5.930274 1.048247 -0.543215 -0.398411 0.581943 -0.900964 -0.145548 -0.225754 -3.477636 0.000000 0.000000 0.000000 1.446984 4.540988 -0.481959 1.175080 4.412547 -1.734754 0.173682 -9.419467 -1.216176 0.000000 0.000000 0.000000 1.090069 -2.681471 -0.868142 0.802047 2.137481 1.455761 0.942039 -1.838163 0.177866 0.000000 0.000000 0.000000 -4.934384 -4.139381 1.619677 -4.784623 -0.673741 -0.707029 -4.701639 1.163970 -2.641768 0.000000 0.000000 0.000000 
578.727417 -88.864761 1066.843994 1.793272 3.380611 1.391949 0.145003 -3.807772 2.046523 -0.136051 0.780662 -0.451768 -0.022082 -0.776645 0.341124 -1.611737 3.496998 4.114162 0.000000 0.000000 0.000000 -5.873040 1.322741 -1.217986 -0.569966 0.886635 -1.107428 -0.000986 -3.338860 -1.645562 0.000000 0.000000 0.000000 1.021180 5.028581 0.315461 1.712360 5.110799 0.300263 0.011980 -14.786994 -3.969663 0.000000 0.000000 0.000000 1.212666 -4.205178 -1.178731 0.812179 3.627524 1.940283 1.026703 -2.378973 0.138789 0.000000 0.000000 0.000000 -4.641427 -5.585236 1.718030 -4.505361 0.870288 -1.181556 -4.444261 0.646015 -2.349328 0.000000 0.000000 0.000000 
586.761414 -89.780624 1069.035034 1.322124 4.624179 1.569913 0.401532 -4.262189 1.617940 0.111391 0.846275 -0.184255 0.216685 -0.876244 0.224476 -1.535747 3.253558 3.926030 0.000000 0.000000 0.000000 -5.693295 1.633176 -2.005120 -0.661480 1.227824 -1.609358 0.282185 -7.700074 1.635330 0.000000 0.000000 0.000000 0.523154 5.267367 0.940468 2.444341 5.633446 4.125532 -0.178173 -21.835688 -7.982826 0.000000 0.000000 0.000000 1.311226 -6.525999 -1.638629 0.753932 6.069095 2.598525 1.092004 -3.157466 0.054996 0.000000 0.000000 0.000000 -4.217129 -7.830998 1.785957 -4.123299 3.424030 -1.877972 -4.111973 -0.017001 -1.971523 0.000000 0.000000 0.000000 
